M48
VER,1
FMAT,2
METRIC,TZ
ICI,OFF
DETECT,ON
ATC,ON
T01C.3
T02C.4
T03C1.05
T04C1.1
%
T01
X18600Y50000
Y51300
Y48700
X17400Y51300
X16100
X17400Y50000
X16100
X17400Y48700
X19800Y51300
Y50000
Y48700
X16100
X6000Y98400
Y94900
X10500Y95200
X24000Y76900
X23100
X9400Y95200
X14400
Y98200
X23300Y98800
X28300
X17100Y53700
Y54600
X16600Y56700
Y55600
X15700Y54400
X14600
X12400
X13500
X13600Y49800
Y48800
X12700Y47600
X13400Y45500
X12500
X13400Y42300
X6200Y29800
Y32400
Y27200
X10900Y50200
X13700Y57500
       X12600
X13700Y58600
X12600
X10900Y51800
X54900Y35600
Y36850
X52800Y35600
Y36900
X51900
X53800Y37800
X52900
X51100
X52900Y39400
X50400
X48100Y34100
Y36900
X47100
X45200
Y35900
Y37900
X45600Y35000
X47200Y34100
Y35100
X65800Y37400
Y38400
Y40400
Y39400
Y41400
Y65700
Y64800
Y63900
Y63000
X68200Y38800
Y36400
X69400Y38800
Y36400
Y42500
X68200
Y40100
X69400
X67100Y77900
X54800Y69400
X53700
Y68300
Y67200
X54700Y66000
X53700
X51900
X50000
Y66900
X48600Y69800
Y68800
X53900Y87400
X54900
X53900Y88700
X54900
            X14000Y91300
X12700
X14000Y88400
X31200Y78900
X18700Y73700
X30000Y73900
X31100
X32200
X27200Y82100
X26300
X27200Y84600
X14000Y76700
X5200Y45800
X4200
X48900Y64200
X47600
X46300
X45000
X46300Y65700
Y67200
Y68700
X45000Y65700
Y67200
Y68700
Y71700
Y70000
X46300
X31100Y75100
X30000
X32200
X11100Y70600
X12400
X27200Y83000
Y81100
Y85600
X15000Y91300
X11800
X12900Y76700
X70300Y71700
X72900Y69100
X1100Y6200
Y11200
Y16200
Y21200
Y26200
Y31200
Y36200
Y41200
Y46200
X33300Y98800
X38300
X43300
X48300
X53300
X58300
     X63300
X68300
X73300
X78300
X2000Y65800
X800Y72500
Y71000
Y69400
Y68100
Y66800
Y65500
X13400Y44400
X12500
X800Y74000
X6200Y25000
Y24000
X5100Y25000
Y24000
X17600Y20800
Y19800
X12700Y5600
Y6700
X17400Y78300
Y79200
X24900Y76900
X26700Y78500
X16300Y79200
Y78300
X18500Y79600
Y77900
X57350Y36500
X58450
X59550
X60650
X57350Y35400
Y34300
Y33200
X58450Y33000
X59550
X60650Y35400
Y34300
Y33200
Y67500
X59550
X58450
X57350
X60650Y68600
Y69700
Y70800
X59550Y71000
X58450
X57350Y68600
Y69700
Y70800
X75400Y65000
X73400
   X74000Y71000
X72400Y72600
X75400Y60000
X73400
X75400Y55000
X73400
X75400Y50000
X73400
X75400Y45000
X73400
X75400Y40000
X73400
Y35000
X75300Y33700
X77200Y64100
Y60000
Y55000
Y50000
Y45000
X77300Y40000
X10600Y42300
X6200Y46800
Y45800
X7000Y58300
X10600Y45500
T02
X19100Y53400
X20400
X19100Y54700
X20400
X19100Y56000
X20400
X19100Y57300
X20400
X22500Y52000
Y50700
Y48000
Y49300
X23800Y52000
Y50700
Y49300
Y48000
X25100Y52000
Y50700
Y49300
Y48000
X26400Y52000
Y50700
Y49300
Y48000
X25900Y45400
X27200
X25900Y44100
  X27200
X25900Y41500
Y42800
X27200
Y41500
X27700Y52000
Y50700
Y49300
Y48000
X29000Y52000
Y50700
Y49300
Y48000
X25900Y46700
X27200
X24600
X20400Y58600
X19100
X17800
X16500Y59900
Y61200
X15200
X17800Y59900
Y61200
X19100Y59900
Y61200
X20400Y59900
Y61200
X15200Y59900
X29000Y53300
X27700
X26400
X25100
X29000Y54600
X27700
X26400
X29000Y55900
X27700
X26400
X27700Y57200
X26400
X19000Y46600
X22400
X21300
X20100
X19000Y45600
X20100
X21300
X22400
X23400
X22100Y22200
X20800
X19500
X15100
X13800
X54800Y33600
X53600
     X54800Y32500
X53600
X54800Y31400
X53600
X63200
X64300
X63200Y32500
X64300
X63200Y33600
X64300
X58400Y30300
X62000
X60700
X59600
X57300
X56000
Y29300
X62000
X60700
X59600
X58400
X57300
X62000Y27100
X60700
X59600
X58400
X57300
X56000
X62000Y26100
X60700
X59600
X58400
X57300
X56000
X54700Y30300
Y29300
Y27100
X63300
Y29300
Y30300
Y26100
X54700
Y24300
X56000
X57300
X58400
X59600
X60700
X62000
X63300
X62900Y42600
X61600
X60300
X59000
X57700
X62900Y41300
Y40000
X56400Y42600
X55100
Y40000
Y41300
X53800Y42600
      Y41300
X60800
Y40000
X61800
Y41300
X56200
Y40000
X57200Y41300
Y40000
X62900Y45200
X61600
X60300
X59000
X57700
X56400
X55100
X53800
X62900Y47800
X61600
X60300
X59000
X57700
X56400
X55100
X53800
X62900Y50400
X61600
X60300
X59000
X57700
X56400
X55100
X53800
X62900Y53000
X61600
X60300
X59000
X57700
X56400
X55100
X53800
X62900Y55600
X61600
X60300
X59000
X57700
X56400
X55100
X53800
X62900Y58200
X61600
X60300
X59000
X57700
X56400
X55100
X53800
X62900Y60800
X61600
X60300
X59000
X57700
X56400
X55100
X53800
         X62900Y62100
X55100
X53800
X62900Y63400
X55100
X49900Y47800
Y45200
Y42600
Y41300
X40800Y49100
Y47800
Y46500
Y45200
Y43900
Y42600
Y41300
X39500Y49100
Y47800
Y46500
Y45200
Y43900
Y42600
Y41300
X49900Y50400
X40800
X39500
X49900Y53000
X40800
X39500
X49900Y55600
X40800
X39500
X49900Y58200
X40800
X38200Y55600
Y53000
Y50400
Y47800
Y49100
X36900Y53000
Y50400
Y47800
Y49100
X35600Y53000
Y50400
Y47800
Y49100
X34300Y50400
Y49100
Y47800
X33000Y50400
Y49100
Y47800
X31700Y49100
Y47800
X39500Y40000
X40800
X36900Y46500
    X38200
X34300
X35600
X33000
X63200Y70400
X64400
X63200Y71500
X64400
X63200Y72600
X64400
X54800Y70400
X53700
X54800Y71500
X53700
Y72600
X54800
X60800Y62100
Y63400
X61800Y62100
Y63400
X56100
Y62100
X57200
Y63400
X64200Y62100
Y60800
Y58200
Y55600
Y53000
Y50400
Y47800
Y45200
Y42600
X65700Y71500
X67000
X65700Y72600
X67000
X59600Y73700
X58400
X60800
X62000
X57200
X56000
X54800
X62000Y74900
X60800
X59600
X58400
X57200
X56000
X54800
X67000Y73800
X62500Y77900
Y79000
X61300Y77900
Y79000
X67000Y74900
X54800Y77100
    X56000
X57200
X58400
X59600
Y78300
X58400
X57200
X56000
X54800
X29000Y57200
X31600
X32900
X34200
X30300Y55900
X31600
X32900
X34200
X35500
X36800Y57200
X30300Y54600
X31600
X32900
X30300Y53300
X31600
X32900
X30300Y52000
X31600
X34200Y54600
X53800Y63400
X49900Y60800
Y62100
X52000Y78300
Y74900
X50700Y78300
X52000Y79600
X50700
X49400
Y78300
X45800Y80700
X46900Y82000
X45800
X39200Y89100
Y90400
X37900
Y89100
X36600
Y90400
X40200Y86300
X41500
X42800
Y85000
X41500
X40200
X46900Y80700
X46000Y77800
X47100
            X46000Y78900
X47100
X44800
X39900
Y77800
X38700
Y78900
X27400Y72700
X28600
X27400Y71500
X28600
X27400Y73900
X28600
X25900Y58600
Y59900
Y61200
Y62500
Y63800
X27200
Y62500
Y59900
Y58600
Y65100
X25900
X27200Y66400
X25900
X39900Y76100
X14100Y71600
X15300
X16500
X14100Y72800
X15300
X16500
X14100Y70000
Y68700
X15300
X16500
X14100Y67400
X15300
X14100Y66100
X39200Y91700
X37900
X36600
X35200Y90400
Y89100
X16500Y67400
X15300Y66100
X52500Y41300
Y42600
Y45200
Y47800
Y50400
Y53000
Y55600
Y58200
Y60800
Y62100
           X46000Y60800
X43400
X46000Y58200
X43400
X46000Y55600
X43400
X46000Y53000
X43400
X46000Y50400
X43400
X46000Y47800
X43400
X46000Y45200
X43400
X46000Y42600
X43400
X46000Y41300
X43400
Y40000
X46000
X53800Y59500
X55100
X56400
X57700
X59000
X60300
X61600
X62900
X64200
X43400Y43900
X46000
X49900
X52500
X53800
X55100
X56400
X57700
X59000
X60300
X61600
X62900
X64200
X20700Y67400
Y66100
X19300
X25900Y67600
X27200
X9800Y71000
X8500
X7200
X12400Y69400
X11100
X9800
X8500
X12400Y68100
X11100
X9800
X12400Y66800
X11100
   X9800
X12400Y65500
X11100
X9800
X8500
X2000Y69400
X4600Y68100
X2000
X4600Y66800
X2000
X4600Y65500
X2000Y71000
X3300
X53000Y77100
X47300Y73800
X49900
X51200
X28500Y67600
Y66400
Y65100
Y63800
X22400Y66100
Y67400
X27400Y69300
X28600
X29900
X31200
X32500
X33800
X34200Y67600
Y66400
X32900
Y67600
X31600Y66400
Y67600
X30300Y66400
Y67600
X34200Y65100
X32900
X31600
X34200Y63800
X32900
X31600
X30300Y65100
Y64000
X34200Y58500
Y59800
Y61100
Y62400
X32900Y58500
Y59800
Y61100
Y62400
X31600Y58500
Y59800
X30300Y57200
     Y58500
X35500Y57200
Y58500
Y59800
Y61100
Y62400
Y63700
X36800Y58500
Y59800
Y61100
Y62400
Y63700
X29000Y58500
X35500Y65100
X38100Y59800
X39400
X38100Y61100
X39400
X38100Y62400
X39400
X38100Y63700
X39400
X40700
X42000
X40700Y62400
X42000
X43300Y63700
X40700Y61100
X38100Y58500
X43300Y65000
Y66300
Y67600
Y68900
X42000Y65000
X23400Y22200
X38700Y81200
Y80100
X39900
X37400
X4500Y72500
Y74000
X3300Y72500
Y74000
X2000Y72500
Y74000
X5800
X7100
X8400
X9700
X35200Y91700
X34100Y89100
Y91700
X38200Y43900
Y42600
Y41300
  Y45200
Y40000
X33000Y41300
X35600Y45200
X34300
X33000
X36900Y43900
X35600
X34300
X33000
X36900Y42600
X35600
X34300
X33000
X36900Y41300
X35600
X34300
X36900Y45200
X33000Y40000
X35600
X34300
X36900
X35700Y71700
X40200Y72100
X43300Y70000
X70000Y50000
X80000
X70000Y55000
X80000
X85000
X70000Y60000
X80000
X85000
X70000Y65000
X85000
Y70000
X75000Y75000
X80000
X85000
X70000Y80000
X75000
X80000
X85000
X55000Y85000
X60000
X65000
X70000
X75000
X80000
X85000
X50000Y90000
X55000
X60000
X65000
X70000
X75000
X80000
     X45000Y95000
X50000
X55000
X60000
X65000
X70000
X75000
X80000
X50000Y25000
X70000
X75000
X80000
X85000
X65000Y30000
X75000
X80000
X85000
Y35000
X80000Y40000
X85000
X70000Y45000
X80000
X85000
X10000Y5000
X15000
X20000
X25000
X30000
X35000
Y10000
Y15000
X5000Y35000
X20000Y90000
X30000Y95000
X35000
X40000
X20000Y85000
X25000
X15000Y80000
X35000
X15000Y85000
X41500Y71700
X46100Y73800
X39000Y72100
X35700Y73100
X37300
X43300Y73800
Y71700
X41500Y73800
X43300Y76100
X41500
X31200Y70900
X32500
X33800
X31800Y22200
   X30500
X29200
X27900
X1400Y58300
X3200
X5000Y56300
X3200
X1400
X5000Y54300
X3200
X1400
X35800Y84400
X32500Y85900
Y87600
X22400Y81000
X20800Y76700
X9300Y23600
X8100
Y22400
X9300
X8100Y21200
X9300
X10400
X11600Y22400
X10400
X11600Y21200
X10400Y23600
X29900Y16800
Y13200
X10500Y15000
Y8600
Y11000
X9300Y9800
X10500
X9300Y11000
Y8600
X15000Y20500
X20000
X25000
X23400Y44300
X22100
X20800
X19500
X23400Y43000
X22100
X20800
X19500
X23400Y41700
X22100
X20800
X19500
X23400Y40400
X22100
X20800
X19500
X23400Y39100
      X22100
X20800
X19500
X23400Y37800
X22100
X20800
X19500
X23400Y36500
X22100
X20800
X19500
X23400Y35200
X22100
X20800
X19500
X23400Y33900
X22100
X20800
X19500
X23400Y32600
X22100
X20800
X19500
X23400Y31300
X22100
X20800
X19500
X23400Y30000
X22100
X20800
X19500
X23400Y28700
X22100
X20800
X19500
X23400Y27400
X22100
X20800
X19500
X23400Y26100
X22100
X20800
X19500
X23400Y24800
X22100
X20800
X19500
X23400Y23500
X22100
X20800
X19500
X45000Y85200
X14800Y40400
X13500
X14800Y39100
X13500
X14800Y37800
X13500
          X14800Y36500
X13500
X14800Y35200
X13500
X14800Y33900
X13500
X14800Y32600
X13500
X14800Y31300
X13500
X14800Y30000
X13500
X14800Y28700
X13500
X14800Y27400
X13500
X14800Y26100
X13500
X14800Y24800
X13500
X14800Y23500
X13500
X43100Y38700
X30200Y39200
X28900
X27600
X26300
X43100Y37400
X34700Y37900
X30200
X28900
X27600
X26300
X43100Y36100
X34700Y36600
X30200
X28900
X27600
X26300
X43100Y34800
X34700Y35300
X30200
X28900
X27600
X26300
X43100Y33500
X34700Y34000
X30200
X28900
X27600
X26300
X36000Y32700
X34700
X30200
  X28900
X27600
X26300
X41200Y31400
X39900
X38600
X37300
X36000
X34700
X30200
X28900
X27600
X26300
X42500Y30100
X41200
X39900
X38600
X37300
X36000
X34700
X30200
X28900
X27600
X26300
X42500Y28800
X41200
X39900
X38600
X37300
X36000
X34700
X30200
X28900
X27600
X26300
X42500Y27500
X41200
X39900
X38600
X37300
X36000
X34700
X30200
X28900
X27600
X26300
X42500Y26200
X41200
X39900
X38600
X37300
X36000
X34700
X30200
X28900
X27600
X26300
X42500Y24900
X41200
X39900
X38600
X37300
X36000
X34700
X30200
X28900
X27600
       X26300
X30200Y23600
X28900
X27600
X26300
X43900Y31400
Y30100
Y28800
Y27500
Y26200
Y24900
X42500Y31400
X10400Y25600
Y27600
Y29600
Y31600
Y33600
X85000Y20000
Y15000
Y7100
X60700Y66100
X59600
X58500
X57400
X60700Y65000
X59600
X58500
X57400
X60650Y39000
X59550
X58450
X57350
X60650Y37900
X59550
X58450
X57350
X50000Y70000
X4900Y69400
X6000Y70400
X7200Y65400
X1400Y60600
T03
X16600Y98700
Y96160
X19140Y98700
Y96160
X21680Y98700
Y96160
X17190Y8500
X19730
X22270
X24810
T04
X17190Y15600
X19730
X22270
X24810
M30
       